<svg width="16" height="16" viewBox="0 0 16 16" fill="none" xmlns="http://www.w3.org/2000/svg">
<path fill-rule="evenodd" clip-rule="evenodd" d="M9.66659 2L10.3333 2.66667H12.6666V4H3.33325V2.66667H5.66659L6.33325 2H9.66659ZM7.99992 8.39333L9.41325 6.98L10.3533 7.92L8.93992 9.33333L10.3533 10.7467L9.41325 11.6867L7.99992 10.2733L6.58659 11.6867L5.64659 10.7467L7.05992 9.33333L5.63992 7.92L6.57992 6.98L7.99992 8.39333ZM3.99992 12.6667C3.99992 13.4 4.59992 14 5.33325 14H10.6666C11.3999 14 11.9999 13.4 11.9999 12.6667V4.66667H3.99992V12.6667ZM10.6666 6H5.33325V12.6667H10.6666V6Z" fill="#F2F2F2"/>
</svg>
