<svg width="40" height="41" viewBox="0 0 40 41" fill="none" xmlns="http://www.w3.org/2000/svg">
<path fill-rule="evenodd" clip-rule="evenodd" d="M31.0112 20.5L38.6395 12.7058C39.387 11.9421 39.387 10.7083 38.6395 9.94457L30.3212 1.4454C29.9631 1.0787 29.4769 0.87262 28.97 0.87262C28.463 0.87262 27.9768 1.0787 27.6187 1.4454L19.9904 9.23957L12.362 1.4454C11.9787 1.07332 11.4995 0.877487 11.0012 0.877487C10.522 0.877487 10.0237 1.07332 9.65954 1.4454L1.3412 9.94457C0.593704 10.7083 0.593704 11.9421 1.3412 12.7058L8.96954 20.5L1.3412 28.2942C0.593704 29.0579 0.593704 30.2917 1.3412 31.0554L9.65954 39.5546C10.407 40.3183 11.6145 40.3183 12.362 39.5546L19.9904 31.7604L27.6187 39.5546C28.002 39.9462 28.4812 40.1225 28.9795 40.1225C29.4779 40.1225 29.957 39.9267 30.3404 39.5546L38.6587 31.0554C39.4062 30.2917 39.4062 29.0579 38.6587 28.2942L31.0112 20.5ZM20.0287 14.5858C21.0829 14.5858 21.9454 15.4671 21.9454 16.5441C21.9454 17.6212 21.0829 18.5025 20.0287 18.5025C18.9745 18.5025 18.112 17.6212 18.112 16.5441C18.112 15.4671 18.9745 14.5858 20.0287 14.5858ZM4.04372 11.335L11.0012 18.4242L17.9396 11.3154L11.0012 4.22625L4.04372 11.335ZM16.1954 22.4191C15.1412 22.4191 14.2787 21.5379 14.2787 20.4608C14.2787 19.3837 15.1412 18.5025 16.1954 18.5025C17.2495 18.5025 18.112 19.3837 18.112 20.4608C18.112 21.5379 17.2495 22.4191 16.1954 22.4191ZM18.112 24.3775C18.112 25.4546 18.9745 26.3358 20.0287 26.3358C21.0829 26.3358 21.9454 25.4546 21.9454 24.3775C21.9454 23.3004 21.0829 22.4191 20.0287 22.4191C18.9745 22.4191 18.112 23.3004 18.112 24.3775ZM23.862 18.5025C24.9162 18.5025 25.7787 19.3837 25.7787 20.4608C25.7787 21.5379 24.9162 22.4191 23.862 22.4191C22.8079 22.4191 21.9454 21.5379 21.9454 20.4608C21.9454 19.3837 22.8079 18.5025 23.862 18.5025ZM22.0029 29.7042L28.9604 36.7933L35.8987 29.6846L28.9604 22.5954L22.0029 29.7042Z" fill="white"/>
</svg>
